<svg width="22" height="20" viewBox="0 0 22 20" fill="none" xmlns="http://www.w3.org/2000/svg">
<path fill-rule="evenodd" clip-rule="evenodd" d="M1.70711 17.7781C1.31658 18.1686 1.31658 18.8018 1.70711 19.1923C2.09763 19.5828 2.7308 19.5828 3.12132 19.1923L7.49145 14.8222C7.58747 14.9398 7.68978 15.053 7.79815 15.1612C8.64674 16.009 9.79766 16.4852 10.9977 16.4852C11.592 16.4852 12.1804 16.3683 12.7293 16.1411C13.2783 15.914 13.7771 15.581 14.1973 15.1612C14.6175 14.7415 14.9508 14.2432 15.1782 13.6947C15.4056 13.1463 15.5226 12.5585 15.5226 11.9649C15.5226 11.3713 15.4056 10.7834 15.1782 10.235C14.9508 9.68658 14.6175 9.18826 14.1973 8.76851C14.0882 8.65945 13.9737 8.55626 13.8544 8.45925L15.8267 6.48699C16.2009 6.704 16.5618 6.94695 16.9064 7.21488C18.5963 8.52892 19.7991 10.3687 20.3241 12.4428C20.3489 12.553 20.3955 12.6571 20.4612 12.7491C20.5269 12.841 20.6103 12.9189 20.7065 12.9782C20.8027 13.0374 20.9099 13.0769 21.0216 13.0942C21.1333 13.1115 21.2473 13.1064 21.357 13.079C21.4667 13.0517 21.5698 13.0027 21.6603 12.935C21.7508 12.8673 21.8268 12.7822 21.8839 12.6847C21.941 12.5872 21.978 12.4793 21.9928 12.3674C22.0075 12.2554 21.9997 12.1416 21.9698 12.0327C21.2505 9.16308 19.4547 6.76636 17.0655 5.24813L20.0919 2.22176C20.4824 1.83123 20.4824 1.19807 20.0919 0.807542C19.7014 0.417017 19.0682 0.417018 18.6777 0.807542L15.1948 4.29043C13.8912 3.76966 12.4731 3.48521 10.9977 3.48521C8.47617 3.4854 6.02692 4.32703 4.03881 5.87649C2.05069 7.42596 0.63764 9.59446 0.0239798 12.0378C-0.0288856 12.2551 0.00643681 12.4846 0.122243 12.6761C0.23805 12.8675 0.424945 13.0055 0.642169 13.0599C0.859393 13.1142 1.08932 13.0806 1.28181 12.9663C1.4743 12.8519 1.61374 12.6662 1.6697 12.4496C2.19317 10.3751 3.39459 8.53444 5.08362 7.21918C6.77264 5.90391 8.8527 5.18929 10.9942 5.18851C11.9731 5.18815 12.9392 5.33694 13.8611 5.62409L11.9413 7.54391C11.6319 7.478 11.3156 7.44453 10.9977 7.44453C9.79766 7.44453 8.64674 7.92078 7.79815 8.76851C6.94957 9.61624 6.47284 10.766 6.47284 11.9649C6.47284 12.2857 6.50698 12.603 6.57326 12.912L1.70711 17.7781ZM8.70055 13.6131C8.78943 13.7367 8.88872 13.8537 8.99785 13.9628C9.52825 14.4926 10.2476 14.7903 10.9977 14.7903C11.7478 14.7903 12.4672 14.4926 12.9976 13.9628C13.528 13.4329 13.826 12.7142 13.826 11.9649C13.826 11.2155 13.528 10.4969 12.9976 9.967C12.8878 9.8573 12.7699 9.75755 12.6453 9.66834L8.70055 13.6131ZM10.2434 9.24178L8.27114 11.2141C8.40014 10.7466 8.64861 10.3159 8.99785 9.967C9.3464 9.61879 9.77657 9.37086 10.2434 9.24178Z" fill="#3548F5"/>
</svg>
