<svg width="30" height="30" viewBox="0 0 30 30" fill="none" xmlns="http://www.w3.org/2000/svg">
<path d="M2.00262 14.0208L9.07369 21.0919L21.0945 9.07107" stroke="#3548F5" stroke-width="2" stroke-linecap="round"/>
<path d="M15.7305 19.2929L15.0234 18.5858L13.6092 20L14.3163 20.7071L15.7305 19.2929ZM16.0234 21L15.3163 21.7071L16.0234 22.4142L16.7305 21.7071L16.0234 21ZM28.7305 9.70711C29.1211 9.31658 29.1211 8.68342 28.7305 8.29289C28.34 7.90237 27.7069 7.90237 27.3163 8.29289L28.7305 9.70711ZM14.3163 20.7071L15.3163 21.7071L16.7305 20.2929L15.7305 19.2929L14.3163 20.7071ZM16.7305 21.7071L28.7305 9.70711L27.3163 8.29289L15.3163 20.2929L16.7305 21.7071Z" fill="#3548F5"/>
</svg>
