<svg width="22" height="20" viewBox="0 0 22 14" fill="none" xmlns="http://www.w3.org/2000/svg">
<path d="M10.9977 4.45932C11.592 4.45932 12.1804 4.57624 12.7293 4.80341C13.2783 5.03058 13.7771 5.36355 14.1973 5.7833C14.6175 6.20305 14.9508 6.70137 15.1782 7.2498C15.4056 7.79823 15.5226 8.38604 15.5226 8.97966C15.5226 9.57328 15.4056 10.1611 15.1782 10.7095C14.9508 11.258 14.6175 11.7563 14.1973 12.176C13.7771 12.5958 13.2783 12.9287 12.7293 13.1559C12.1804 13.3831 11.592 13.5 10.9977 13.5C9.79766 13.5 8.64674 13.0238 7.79815 12.176C6.94957 11.3283 6.47284 10.1785 6.47284 8.97966C6.47284 7.78079 6.94957 6.63103 7.79815 5.7833C8.64674 4.93557 9.79766 4.45932 10.9977 4.45932ZM10.9977 6.15424C10.2476 6.15424 9.52825 6.45191 8.99785 6.98178C8.46744 7.51165 8.16947 8.23031 8.16947 8.97966C8.16947 9.72901 8.46744 10.4477 8.99785 10.9775C9.52825 11.5074 10.2476 11.8051 10.9977 11.8051C11.7478 11.8051 12.4672 11.5074 12.9976 10.9775C13.528 10.4477 13.826 9.72901 13.826 8.97966C13.826 8.23031 13.528 7.51165 12.9976 6.98178C12.4672 6.45191 11.7478 6.15424 10.9977 6.15424ZM10.9977 0.5C16.2165 0.5 20.7194 4.05932 21.9698 9.04746C21.9997 9.15638 22.0075 9.27017 21.9928 9.38214C21.978 9.49412 21.941 9.60202 21.8839 9.69951C21.8268 9.79699 21.7508 9.88209 21.6603 9.94981C21.5698 10.0175 21.4667 10.0665 21.357 10.0938C21.2473 10.1212 21.1333 10.1263 21.0216 10.109C20.9099 10.0917 20.8027 10.0522 20.7065 9.99296C20.6103 9.93369 20.5269 9.85579 20.4612 9.76386C20.3955 9.67193 20.3489 9.56781 20.3241 9.45763C19.7991 7.38351 18.5963 5.5437 16.9064 4.22967C15.2164 2.91563 13.1358 2.20252 10.9942 2.2033C8.8527 2.20407 6.77264 2.9187 5.08362 4.23397C3.39459 5.54923 2.19317 7.38991 1.6697 9.46441C1.61374 9.68102 1.4743 9.86674 1.28181 9.98106C1.08932 10.0954 0.859393 10.129 0.642169 10.0747C0.424945 10.0203 0.23805 9.88233 0.122243 9.69086C0.00643681 9.49938 -0.0288856 9.26993 0.0239798 9.05254C0.63764 6.60925 2.05069 4.44075 4.03881 2.89128C6.02692 1.34182 8.47617 0.500187 10.9977 0.5Z" fill="#3548F5"/>
</svg>
